<?xml version="1.0" encoding="UTF-8" standalone="no"?>
<!-- Created with Inkscape (http://www.inkscape.org/) -->

<svg
   xmlns:dc="http://purl.org/dc/elements/1.1/"
   xmlns:cc="http://creativecommons.org/ns#"
   xmlns:rdf="http://www.w3.org/1999/02/22-rdf-syntax-ns#"
   xmlns:svg="http://www.w3.org/2000/svg"
   xmlns="http://www.w3.org/2000/svg"
   xmlns:sodipodi="http://sodipodi.sourceforge.net/DTD/sodipodi-0.dtd"
   xmlns:inkscape="http://www.inkscape.org/namespaces/inkscape"
   width="445"
   height="290.13049"
   viewBox="0 0 117.73958 76.763695"
   version="1.1"
   id="svg8"
   inkscape:version="0.92.3 (2405546, 2018-03-11)"
   sodipodi:docname="aliroomlogo5.svg">
  <defs
     id="defs2" />
  <sodipodi:namedview
     id="base"
     pagecolor="#ffffff"
     bordercolor="#666666"
     borderopacity="1.0"
     inkscape:pageopacity="0.0"
     inkscape:pageshadow="2"
     inkscape:zoom="1.979899"
     inkscape:cx="278.76507"
     inkscape:cy="108.3814"
     inkscape:document-units="px"
     inkscape:current-layer="layer4"
     showgrid="true"
     inkscape:snap-global="false"
     inkscape:measure-start="310,680"
     inkscape:measure-end="395,680"
     units="px"
     fit-margin-top="0"
     fit-margin-left="0"
     fit-margin-right="0"
     fit-margin-bottom="0"
     inkscape:window-width="1366"
     inkscape:window-height="719"
     inkscape:window-x="0"
     inkscape:window-y="0"
     inkscape:window-maximized="1" />
  <metadata
     id="metadata5">
    <rdf:RDF>
      <cc:Work
         rdf:about="">
        <dc:format>image/svg+xml</dc:format>
        <dc:type
           rdf:resource="http://purl.org/dc/dcmitype/StillImage" />
        <dc:title></dc:title>
      </cc:Work>
    </rdf:RDF>
  </metadata>
  <g
     inkscape:groupmode="layer"
     id="layer4"
     inkscape:label="Layer 3"
     transform="translate(-26.458333,-57.517557)"
     style="display:inline">
    <path
       style="display:inline;fill:#742c00;fill-opacity:1;stroke-width:0.26558888"
       d="M 27.661046,134.28125 85.914478,57.517557 144.19792,134.28125 Z"
       id="path964"
       inkscape:connector-curvature="0"
       sodipodi:nodetypes="cccc" />
  </g>
  <g
     inkscape:groupmode="layer"
     id="layer2"
     inkscape:label="Layer 2"
     style="display:inline"
     transform="translate(-26.458333,-57.517557)">
    <path
       style="display:inline;fill:#dd7c00;fill-opacity:1;stroke-width:0.18836555"
       d="m 27.794681,134.28125 54.80883,-72.313157 c 0,0 23.880379,31.564472 54.450659,72.313157 z"
       id="path137"
       inkscape:connector-curvature="0"
       sodipodi:nodetypes="cccc" />
  </g>
  <g
     inkscape:label="Layer 1"
     inkscape:groupmode="layer"
     id="layer1"
     style="display:inline"
     transform="translate(-26.458333,-57.517557)">
    <g
       id="g102"
       transform="matrix(1.2302472,0,0,1.2478265,52.840434,81.839127)"
       style="image-rendering:auto">
      <path
         id="path80"
         d="M 39,39.1 H 9 c -1.7,0 -3,-1.3 -3,-3 V 9 C 6,7.3 7.3,6 9,6 h 30 c 1.7,0 3,1.3 3,3 v 27.1 c 0,1.6 -1.3,3 -3,3 z"
         style="fill:#ff8f00"
         inkscape:connector-curvature="0" />
      <path
         id="path82"
         d="M 39,42 H 9 C 7.3,42 6,40.7 6,39 V 14 c 0,-1.7 1.3,-3 3,-3 h 30 c 1.7,0 3,1.3 3,3 v 25 c 0,1.7 -1.3,3 -3,3 z"
         style="fill:#dd2c00"
         inkscape:connector-curvature="0" />
    </g>
    <g
       aria-label="Ali.Room"
       style="font-style:normal;font-variant:normal;font-weight:bold;font-stretch:semi-condensed;font-size:8.46666622px;font-family:'DejaVu Serif';-inkscape-font-specification:'DejaVu Serif Bold Semi-Condensed';letter-spacing:0px;word-spacing:0px;fill:#ffffff;fill-opacity:1;stroke:none;stroke-width:0.26458332px;stroke-linecap:butt;stroke-linejoin:miter;stroke-opacity:1"
       id="text971"
       transform="matrix(1.4134938,0,0,1.4134938,-27.751971,-68.716925)">
      <path
         d="m 62.690298,127.28869 v -0.50023 h 0.450618 l 2.091862,-5.672 h 0.888835 l 2.095996,5.672 h 0.529167 v 0.50023 h -2.600358 v -0.50023 h 0.541569 l -0.458887,-1.2609 h -2.083594 l -0.467155,1.2609 h 0.661459 v 0.50023 z m 1.637109,-2.26136 h 1.719792 l -0.855762,-2.36058 z"
         style="font-style:normal;font-variant:normal;font-weight:bold;font-stretch:semi-condensed;font-size:8.46666622px;font-family:'DejaVu Serif';-inkscape-font-specification:'DejaVu Serif Bold Semi-Condensed';fill:#ffffff;fill-opacity:1;stroke-width:0.26458332px"
         id="path973"
         inkscape:connector-curvature="0" />
      <path
         d="m 70.805564,126.78846 h 0.56224 v 0.50023 h -2.443262 v -0.50023 h 0.56224 v -5.43636 h -0.56224 v -0.49609 h 1.881022 z"
         style="font-style:normal;font-variant:normal;font-weight:bold;font-stretch:semi-condensed;font-size:8.46666622px;font-family:'DejaVu Serif';-inkscape-font-specification:'DejaVu Serif Bold Semi-Condensed';fill:#ffffff;fill-opacity:1;stroke-width:0.26458332px"
         id="path975"
         inkscape:connector-curvature="0" />
      <path
         d="m 72.256638,121.64976 q 0,-0.33487 0.206706,-0.56224 0.21084,-0.23151 0.51263,-0.23151 0.293522,0 0.500228,0.23151 0.206706,0.22737 0.206706,0.56224 0,0.32659 -0.206706,0.5581 -0.206706,0.22738 -0.500228,0.22738 -0.30179,0 -0.51263,-0.22738 -0.206706,-0.22737 -0.206706,-0.5581 z m 1.442806,5.1387 h 0.56224 v 0.50023 h -2.443262 v -0.50023 h 0.56224 v -3.39411 h -0.56224 v -0.50022 h 1.881022 z"
         style="font-style:normal;font-variant:normal;font-weight:bold;font-stretch:semi-condensed;font-size:8.46666622px;font-family:'DejaVu Serif';-inkscape-font-specification:'DejaVu Serif Bold Semi-Condensed';fill:#ffffff;fill-opacity:1;stroke-width:0.26458332px"
         id="path977"
         inkscape:connector-curvature="0" />
      <path
         d="m 75.067836,126.61896 q 0,-0.32246 0.206706,-0.55397 0.210839,-0.23151 0.500227,-0.23151 0.297657,0 0.504362,0.23151 0.206706,0.23151 0.206706,0.55397 0,0.3266 -0.206706,0.55811 -0.206705,0.23151 -0.504362,0.23151 -0.289388,0 -0.500227,-0.23151 -0.206706,-0.23151 -0.206706,-0.55811 z"
         style="font-style:normal;font-variant:normal;font-weight:bold;font-stretch:semi-condensed;font-size:8.46666622px;font-family:'DejaVu Serif';-inkscape-font-specification:'DejaVu Serif Bold Semi-Condensed';fill:#ffffff;fill-opacity:1;stroke-width:0.26458332px"
         id="path979"
         inkscape:connector-curvature="0" />
      <path
         d="m 81.140851,124.27492 q 0.330729,0.0537 0.558105,0.24391 0.227376,0.19017 0.396875,0.54984 l 0.810286,1.71979 h 0.570508 v 0.50023 h -1.827278 l -0.888835,-1.86449 q -0.256315,-0.57877 -0.438216,-0.73587 -0.177767,-0.16123 -0.496094,-0.16123 h -0.227376 v 2.26136 h 0.715202 v 0.50023 h -2.860807 v -0.50023 h 0.711067 v -5.17178 h -0.711067 v -0.50022 h 3.170865 q 0.967383,0 1.492416,0.43408 0.529166,0.42995 0.529166,1.2237 0,0.64492 -0.376204,1.02112 -0.37207,0.37207 -1.128613,0.47956 z m -1.542025,-0.24391 h 0.487825 q 0.520899,0 0.802019,-0.3142 0.281119,-0.31419 0.281119,-0.8971 0,-0.58291 -0.281119,-0.89297 -0.28112,-0.31006 -0.802019,-0.31006 h -0.487825 z"
         style="font-style:normal;font-variant:normal;font-weight:bold;font-stretch:semi-condensed;font-size:8.46666622px;font-family:'DejaVu Serif';-inkscape-font-specification:'DejaVu Serif Bold Semi-Condensed';fill:#ffffff;fill-opacity:1;stroke-width:0.26458332px"
         id="path981"
         inkscape:connector-curvature="0" />
      <path
         d="m 85.977765,126.94142 q 0.413411,0 0.58291,-0.39687 0.169499,-0.39688 0.169499,-1.45521 0,-1.05833 -0.169499,-1.45107 -0.165365,-0.39688 -0.58291,-0.39688 -0.42168,0 -0.595313,0.40101 -0.169498,0.39687 -0.169498,1.44694 0,1.05006 0.169498,1.45107 0.173633,0.40101 0.595313,0.40101 z m 0,0.46716 q -1.045931,0 -1.641244,-0.61599 -0.591178,-0.62011 -0.591178,-1.70325 0,-1.08727 0.591178,-1.69912 0.595313,-0.61598 1.641244,-0.61598 1.045931,0 1.637109,0.61598 0.595313,0.61185 0.595313,1.69912 0,1.08314 -0.595313,1.70325 -0.595312,0.61599 -1.637109,0.61599 z"
         style="font-style:normal;font-variant:normal;font-weight:bold;font-stretch:semi-condensed;font-size:8.46666622px;font-family:'DejaVu Serif';-inkscape-font-specification:'DejaVu Serif Bold Semi-Condensed';fill:#ffffff;fill-opacity:1;stroke-width:0.26458332px"
         id="path983"
         inkscape:connector-curvature="0" />
      <path
         d="m 91.054457,126.94142 q 0.413412,0 0.582911,-0.39687 0.169498,-0.39688 0.169498,-1.45521 0,-1.05833 -0.169498,-1.45107 -0.165365,-0.39688 -0.582911,-0.39688 -0.421679,0 -0.595312,0.40101 -0.169499,0.39687 -0.169499,1.44694 0,1.05006 0.169499,1.45107 0.173633,0.40101 0.595312,0.40101 z m 0,0.46716 q -1.04593,0 -1.641243,-0.61599 -0.591178,-0.62011 -0.591178,-1.70325 0,-1.08727 0.591178,-1.69912 0.595313,-0.61598 1.641243,-0.61598 1.045931,0 1.63711,0.61598 0.595312,0.61185 0.595312,1.69912 0,1.08314 -0.595312,1.70325 -0.595313,0.61599 -1.63711,0.61599 z"
         style="font-style:normal;font-variant:normal;font-weight:bold;font-stretch:semi-condensed;font-size:8.46666622px;font-family:'DejaVu Serif';-inkscape-font-specification:'DejaVu Serif Bold Semi-Condensed';fill:#ffffff;fill-opacity:1;stroke-width:0.26458332px"
         id="path985"
         inkscape:connector-curvature="0" />
      <path
         d="m 98.21061,123.61346 q 0.272851,-0.43822 0.591178,-0.63665 0.322461,-0.20257 0.752409,-0.20257 0.677993,0 1.012853,0.42994 0.339,0.42582 0.339,1.28985 v 2.29443 h 0.56638 v 0.50023 h -2.356449 v -0.50023 h 0.475423 v -2.07532 q 0,-0.82269 -0.115755,-1.03767 -0.111622,-0.21497 -0.42168,-0.21497 -0.3514,0 -0.545703,0.30179 -0.190169,0.29766 -0.190169,0.85163 v 2.17454 h 0.471289 v 0.50023 h -2.261361 v -0.50023 h 0.471289 v -2.07532 q 0,-0.82269 -0.115755,-1.03767 -0.115755,-0.21497 -0.417546,-0.21497 -0.355534,0 -0.549837,0.30179 -0.190169,0.29766 -0.190169,0.85163 v 2.17454 h 0.471289 v 0.50023 h -2.352311 v -0.50023 h 0.562239 v -3.39411 h -0.562239 v -0.50022 h 1.881022 v 0.62011 q 0.227376,-0.38447 0.525032,-0.56224 0.297657,-0.17776 0.706934,-0.17776 0.483691,0 0.785482,0.2067 0.30179,0.20257 0.467155,0.63252 z"
         style="font-style:normal;font-variant:normal;font-weight:bold;font-stretch:semi-condensed;font-size:8.46666622px;font-family:'DejaVu Serif';-inkscape-font-specification:'DejaVu Serif Bold Semi-Condensed';fill:#ffffff;fill-opacity:1;stroke-width:0.26458332px"
         id="path987"
         inkscape:connector-curvature="0" />
    </g>
  </g>
</svg>
